<?xml version="1.0" encoding="UTF-8"?> <svg xmlns="http://www.w3.org/2000/svg" id="katman_2" viewBox="0 0 132.84 14.66"><g id="katman_1"><g><g><path d="M18.67,3.38h1.11v1.13h-1.11v-1.13ZM18.67,4.51h1.11v1.13h-1.11v-1.13ZM18.67,5.64h1.11v1.13h-1.11v-1.13ZM18.67,6.77h1.11v1.13h-1.11v-1.13ZM18.67,7.89h1.11v1.13h-1.11v-1.13ZM18.67,9.02h1.11v1.13h-1.11v-1.13ZM18.67,10.15h1.11v1.13h-1.11v-1.13ZM18.67,11.28h1.11v1.13h-1.11v-1.13ZM18.67,12.4h1.11v1.13h-1.11v-1.13ZM18.67,13.53h1.11v1.13h-1.11v-1.13ZM19.77,3.38h1.11v1.13h-1.11v-1.13ZM19.77,4.51h1.11v1.13h-1.11v-1.13ZM19.77,5.64h1.11v1.13h-1.11v-1.13ZM19.77,6.77h1.11v1.13h-1.11v-1.13ZM19.77,7.89h1.11v1.13h-1.11v-1.13ZM19.77,9.02h1.11v1.13h-1.11v-1.13ZM19.77,10.15h1.11v1.13h-1.11v-1.13ZM19.77,11.28h1.11v1.13h-1.11v-1.13ZM19.77,12.4h1.11v1.13h-1.11v-1.13ZM19.77,13.53h1.11v1.13h-1.11v-1.13ZM20.88,3.38h1.11v1.13h-1.11v-1.13ZM20.88,4.51h1.11v1.13h-1.11v-1.13ZM20.88,12.4h1.11v1.13h-1.11v-1.13ZM20.88,13.53h1.11v1.13h-1.11v-1.13ZM21.99,3.38h1.11v1.13h-1.11v-1.13ZM21.99,4.51h1.11v1.13h-1.11v-1.13ZM21.99,12.4h1.11v1.13h-1.11v-1.13ZM21.99,13.53h1.11v1.13h-1.11v-1.13ZM23.09,3.38h1.11v1.13h-1.11v-1.13ZM23.09,4.51h1.11v1.13h-1.11v-1.13ZM23.09,5.64h1.11v1.13h-1.11v-1.13ZM23.09,11.28h1.11v1.13h-1.11v-1.13ZM23.09,12.4h1.11v1.13h-1.11v-1.13ZM23.09,13.53h1.11v1.13h-1.11v-1.13ZM24.2,3.38h1.11v1.13h-1.11v-1.13ZM24.2,4.51h1.11v1.13h-1.11v-1.13ZM24.2,5.64h1.11v1.13h-1.11v-1.13ZM24.2,6.77h1.11v1.13h-1.11v-1.13ZM24.2,7.89h1.11v1.13h-1.11v-1.13ZM24.2,9.02h1.11v1.13h-1.11v-1.13ZM24.2,10.15h1.11v1.13h-1.11v-1.13ZM24.2,11.28h1.11v1.13h-1.11v-1.13ZM24.2,12.4h1.11v1.13h-1.11v-1.13ZM24.2,13.53h1.11v1.13h-1.11v-1.13ZM25.3,4.51h1.11v1.13h-1.11v-1.13ZM25.3,5.64h1.11v1.13h-1.11v-1.13ZM25.3,6.77h1.11v1.13h-1.11v-1.13ZM25.3,7.89h1.11v1.13h-1.11v-1.13ZM25.3,9.02h1.11v1.13h-1.11v-1.13ZM25.3,10.15h1.11v1.13h-1.11v-1.13ZM25.3,11.28h1.11v1.13h-1.11v-1.13ZM25.3,12.4h1.11v1.13h-1.11v-1.13Z"></path><path d="M27.51,0h1.11v1.13h-1.11V0ZM27.51,1.13h1.11v1.13h-1.11v-1.13ZM27.51,3.38h1.11v1.13h-1.11v-1.13ZM27.51,4.51h1.11v1.13h-1.11v-1.13ZM27.51,5.64h1.11v1.13h-1.11v-1.13ZM27.51,6.77h1.11v1.13h-1.11v-1.13ZM27.51,7.89h1.11v1.13h-1.11v-1.13ZM27.51,9.02h1.11v1.13h-1.11v-1.13ZM27.51,10.15h1.11v1.13h-1.11v-1.13ZM27.51,11.28h1.11v1.13h-1.11v-1.13ZM27.51,12.4h1.11v1.13h-1.11v-1.13ZM27.51,13.53h1.11v1.13h-1.11v-1.13ZM28.62,0h1.11v1.13h-1.11V0ZM28.62,1.13h1.11v1.13h-1.11v-1.13ZM28.62,3.38h1.11v1.13h-1.11v-1.13ZM28.62,4.51h1.11v1.13h-1.11v-1.13ZM28.62,5.64h1.11v1.13h-1.11v-1.13ZM28.62,6.77h1.11v1.13h-1.11v-1.13ZM28.62,7.89h1.11v1.13h-1.11v-1.13ZM28.62,9.02h1.11v1.13h-1.11v-1.13ZM28.62,10.15h1.11v1.13h-1.11v-1.13ZM28.62,11.28h1.11v1.13h-1.11v-1.13ZM28.62,12.4h1.11v1.13h-1.11v-1.13ZM28.62,13.53h1.11v1.13h-1.11v-1.13Z"></path><path d="M30.83,11.28h1.11v1.13h-1.11v-1.13ZM30.83,12.4h1.11v1.13h-1.11v-1.13ZM31.94,11.28h1.11v1.13h-1.11v-1.13ZM31.94,12.4h1.11v1.13h-1.11v-1.13ZM31.94,13.53h1.11v1.13h-1.11v-1.13ZM33.04,12.4h1.11v1.13h-1.11v-1.13ZM33.04,13.53h1.11v1.13h-1.11v-1.13ZM34.15,11.28h1.11v1.13h-1.11v-1.13ZM34.15,12.4h1.11v1.13h-1.11v-1.13ZM34.15,13.53h1.11v1.13h-1.11v-1.13ZM35.26,3.38h1.11v1.13h-1.11v-1.13ZM35.26,4.51h1.11v1.13h-1.11v-1.13ZM35.26,5.64h1.11v1.13h-1.11v-1.13ZM35.26,6.77h1.11v1.13h-1.11v-1.13ZM35.26,7.89h1.11v1.13h-1.11v-1.13ZM35.26,9.02h1.11v1.13h-1.11v-1.13ZM35.26,10.15h1.11v1.13h-1.11v-1.13ZM35.26,11.28h1.11v1.13h-1.11v-1.13ZM35.26,12.4h1.11v1.13h-1.11v-1.13ZM35.26,13.53h1.11v1.13h-1.11v-1.13ZM36.36,3.38h1.11v1.13h-1.11v-1.13ZM36.36,4.51h1.11v1.13h-1.11v-1.13ZM36.36,5.64h1.11v1.13h-1.11v-1.13ZM36.36,6.77h1.11v1.13h-1.11v-1.13ZM36.36,7.89h1.11v1.13h-1.11v-1.13ZM36.36,9.02h1.11v1.13h-1.11v-1.13ZM36.36,10.15h1.11v1.13h-1.11v-1.13ZM36.36,11.28h1.11v1.13h-1.11v-1.13ZM36.36,12.4h1.11v1.13h-1.11v-1.13Z"></path><path d="M38.57,0h1.11v1.13h-1.11V0ZM38.57,1.13h1.11v1.13h-1.11v-1.13ZM38.57,3.38h1.11v1.13h-1.11v-1.13ZM38.57,4.51h1.11v1.13h-1.11v-1.13ZM38.57,5.64h1.11v1.13h-1.11v-1.13ZM38.57,6.77h1.11v1.13h-1.11v-1.13ZM38.57,7.89h1.11v1.13h-1.11v-1.13ZM38.57,9.02h1.11v1.13h-1.11v-1.13ZM38.57,10.15h1.11v1.13h-1.11v-1.13ZM38.57,11.28h1.11v1.13h-1.11v-1.13ZM38.57,12.4h1.11v1.13h-1.11v-1.13ZM38.57,13.53h1.11v1.13h-1.11v-1.13ZM39.68,0h1.11v1.13h-1.11V0ZM39.68,1.13h1.11v1.13h-1.11v-1.13ZM39.68,3.38h1.11v1.13h-1.11v-1.13ZM39.68,4.51h1.11v1.13h-1.11v-1.13ZM39.68,5.64h1.11v1.13h-1.11v-1.13ZM39.68,6.77h1.11v1.13h-1.11v-1.13ZM39.68,7.89h1.11v1.13h-1.11v-1.13ZM39.68,9.02h1.11v1.13h-1.11v-1.13ZM39.68,10.15h1.11v1.13h-1.11v-1.13ZM39.68,11.28h1.11v1.13h-1.11v-1.13ZM39.68,12.4h1.11v1.13h-1.11v-1.13ZM39.68,13.53h1.11v1.13h-1.11v-1.13Z"></path><path d="M41.89,3.38h1.11v1.13h-1.11v-1.13ZM41.89,4.51h1.11v1.13h-1.11v-1.13ZM42.99,3.38h1.11v1.13h-1.11v-1.13ZM42.99,4.51h1.11v1.13h-1.11v-1.13ZM44.1,3.38h1.11v1.13h-1.11v-1.13ZM44.1,4.51h1.11v1.13h-1.11v-1.13ZM44.1,5.64h1.11v1.13h-1.11v-1.13ZM44.1,6.77h1.11v1.13h-1.11v-1.13ZM44.1,7.89h1.11v1.13h-1.11v-1.13ZM44.1,9.02h1.11v1.13h-1.11v-1.13ZM44.1,10.15h1.11v1.13h-1.11v-1.13ZM44.1,11.28h1.11v1.13h-1.11v-1.13ZM44.1,12.4h1.11v1.13h-1.11v-1.13ZM44.1,13.53h1.11v1.13h-1.11v-1.13ZM45.21,3.38h1.11v1.13h-1.11v-1.13ZM45.21,4.51h1.11v1.13h-1.11v-1.13ZM45.21,5.64h1.11v1.13h-1.11v-1.13ZM45.21,6.77h1.11v1.13h-1.11v-1.13ZM45.21,7.89h1.11v1.13h-1.11v-1.13ZM45.21,9.02h1.11v1.13h-1.11v-1.13ZM45.21,10.15h1.11v1.13h-1.11v-1.13ZM45.21,11.28h1.11v1.13h-1.11v-1.13ZM45.21,12.4h1.11v1.13h-1.11v-1.13ZM45.21,13.53h1.11v1.13h-1.11v-1.13ZM46.31,3.38h1.11v1.13h-1.11v-1.13ZM46.31,4.51h1.11v1.13h-1.11v-1.13ZM47.42,3.38h1.11v1.13h-1.11v-1.13ZM47.42,4.51h1.11v1.13h-1.11v-1.13Z"></path><path d="M49.63,6.77h1.11v1.13h-1.11v-1.13ZM49.63,7.89h1.11v1.13h-1.11v-1.13ZM49.63,9.02h1.11v1.13h-1.11v-1.13ZM49.63,10.15h1.11v1.13h-1.11v-1.13ZM49.63,11.28h1.11v1.13h-1.11v-1.13ZM49.63,12.4h1.11v1.13h-1.11v-1.13ZM49.63,13.53h1.11v1.13h-1.11v-1.13ZM50.74,5.64h1.11v1.13h-1.11v-1.13ZM50.74,6.77h1.11v1.13h-1.11v-1.13ZM50.74,7.89h1.11v1.13h-1.11v-1.13ZM50.74,9.02h1.11v1.13h-1.11v-1.13ZM50.74,10.15h1.11v1.13h-1.11v-1.13ZM50.74,11.28h1.11v1.13h-1.11v-1.13ZM50.74,12.4h1.11v1.13h-1.11v-1.13ZM50.74,13.53h1.11v1.13h-1.11v-1.13ZM51.84,4.51h1.11v1.13h-1.11v-1.13ZM51.84,5.64h1.11v1.13h-1.11v-1.13ZM51.84,6.77h1.11v1.13h-1.11v-1.13ZM51.84,10.15h1.11v1.13h-1.11v-1.13ZM51.84,11.28h1.11v1.13h-1.11v-1.13ZM52.95,3.38h1.11v1.13h-1.11v-1.13ZM52.95,4.51h1.11v1.13h-1.11v-1.13ZM52.95,5.64h1.11v1.13h-1.11v-1.13ZM52.95,10.15h1.11v1.13h-1.11v-1.13ZM52.95,11.28h1.11v1.13h-1.11v-1.13ZM54.05,4.51h1.11v1.13h-1.11v-1.13ZM54.05,5.64h1.11v1.13h-1.11v-1.13ZM54.05,6.77h1.11v1.13h-1.11v-1.13ZM54.05,10.15h1.11v1.13h-1.11v-1.13ZM54.05,11.28h1.11v1.13h-1.11v-1.13ZM55.16,5.64h1.11v1.13h-1.11v-1.13ZM55.16,6.77h1.11v1.13h-1.11v-1.13ZM55.16,7.89h1.11v1.13h-1.11v-1.13ZM55.16,9.02h1.11v1.13h-1.11v-1.13ZM55.16,10.15h1.11v1.13h-1.11v-1.13ZM55.16,11.28h1.11v1.13h-1.11v-1.13ZM55.16,12.4h1.11v1.13h-1.11v-1.13ZM55.16,13.53h1.11v1.13h-1.11v-1.13ZM56.27,6.77h1.11v1.13h-1.11v-1.13ZM56.27,7.89h1.11v1.13h-1.11v-1.13ZM56.27,9.02h1.11v1.13h-1.11v-1.13ZM56.27,10.15h1.11v1.13h-1.11v-1.13ZM56.27,11.28h1.11v1.13h-1.11v-1.13ZM56.27,12.4h1.11v1.13h-1.11v-1.13ZM56.27,13.53h1.11v1.13h-1.11v-1.13Z"></path><path d="M58.48,3.38h1.11v1.13h-1.11v-1.13ZM58.48,4.51h1.11v1.13h-1.11v-1.13ZM58.48,5.64h1.11v1.13h-1.11v-1.13ZM58.48,6.77h1.11v1.13h-1.11v-1.13ZM58.48,7.89h1.11v1.13h-1.11v-1.13ZM58.48,9.02h1.11v1.13h-1.11v-1.13ZM58.48,10.15h1.11v1.13h-1.11v-1.13ZM58.48,11.28h1.11v1.13h-1.11v-1.13ZM58.48,12.4h1.11v1.13h-1.11v-1.13ZM58.48,13.53h1.11v1.13h-1.11v-1.13ZM59.58,3.38h1.11v1.13h-1.11v-1.13ZM59.58,4.51h1.11v1.13h-1.11v-1.13ZM59.58,5.64h1.11v1.13h-1.11v-1.13ZM59.58,6.77h1.11v1.13h-1.11v-1.13ZM59.58,7.89h1.11v1.13h-1.11v-1.13ZM59.58,9.02h1.11v1.13h-1.11v-1.13ZM59.58,10.15h1.11v1.13h-1.11v-1.13ZM59.58,11.28h1.11v1.13h-1.11v-1.13ZM59.58,12.4h1.11v1.13h-1.11v-1.13ZM59.58,13.53h1.11v1.13h-1.11v-1.13ZM60.69,12.4h1.11v1.13h-1.11v-1.13ZM60.69,13.53h1.11v1.13h-1.11v-1.13ZM61.79,12.4h1.11v1.13h-1.11v-1.13ZM61.79,13.53h1.11v1.13h-1.11v-1.13ZM62.9,12.4h1.11v1.13h-1.11v-1.13ZM62.9,13.53h1.11v1.13h-1.11v-1.13Z"></path></g><g><path d="M74.23,4.51h1.11v1.13h-1.11v-1.13ZM74.23,5.64h1.11v1.13h-1.11v-1.13ZM74.23,6.77h1.11v1.13h-1.11v-1.13ZM74.23,7.89h1.11v1.13h-1.11v-1.13ZM74.23,11.28h1.11v1.13h-1.11v-1.13ZM74.23,12.4h1.11v1.13h-1.11v-1.13ZM75.34,3.38h1.11v1.13h-1.11v-1.13ZM75.34,4.51h1.11v1.13h-1.11v-1.13ZM75.34,5.64h1.11v1.13h-1.11v-1.13ZM75.34,6.77h1.11v1.13h-1.11v-1.13ZM75.34,7.89h1.11v1.13h-1.11v-1.13ZM75.34,9.02h1.11v1.13h-1.11v-1.13ZM75.34,11.28h1.11v1.13h-1.11v-1.13ZM75.34,12.4h1.11v1.13h-1.11v-1.13ZM75.34,13.53h1.11v1.13h-1.11v-1.13ZM76.44,3.38h1.11v1.13h-1.11v-1.13ZM76.44,4.51h1.11v1.13h-1.11v-1.13ZM76.44,7.89h1.11v1.13h-1.11v-1.13ZM76.44,9.02h1.11v1.13h-1.11v-1.13ZM76.44,12.4h1.11v1.13h-1.11v-1.13ZM76.44,13.53h1.11v1.13h-1.11v-1.13ZM77.55,3.38h1.11v1.13h-1.11v-1.13ZM77.55,4.51h1.11v1.13h-1.11v-1.13ZM77.55,7.89h1.11v1.13h-1.11v-1.13ZM77.55,9.02h1.11v1.13h-1.11v-1.13ZM77.55,12.4h1.11v1.13h-1.11v-1.13ZM77.55,13.53h1.11v1.13h-1.11v-1.13ZM78.65,3.38h1.11v1.13h-1.11v-1.13ZM78.65,4.51h1.11v1.13h-1.11v-1.13ZM78.65,7.89h1.11v1.13h-1.11v-1.13ZM78.65,9.02h1.11v1.13h-1.11v-1.13ZM78.65,12.4h1.11v1.13h-1.11v-1.13ZM78.65,13.53h1.11v1.13h-1.11v-1.13ZM79.76,3.38h1.11v1.13h-1.11v-1.13ZM79.76,4.51h1.11v1.13h-1.11v-1.13ZM79.76,5.64h1.11v1.13h-1.11v-1.13ZM79.76,7.89h1.11v1.13h-1.11v-1.13ZM79.76,9.02h1.11v1.13h-1.11v-1.13ZM79.76,10.15h1.11v1.13h-1.11v-1.13ZM79.76,11.28h1.11v1.13h-1.11v-1.13ZM79.76,12.4h1.11v1.13h-1.11v-1.13ZM79.76,13.53h1.11v1.13h-1.11v-1.13ZM80.87,4.51h1.11v1.13h-1.11v-1.13ZM80.87,5.64h1.11v1.13h-1.11v-1.13ZM80.87,9.02h1.11v1.13h-1.11v-1.13ZM80.87,10.15h1.11v1.13h-1.11v-1.13ZM80.87,11.28h1.11v1.13h-1.11v-1.13ZM80.87,12.4h1.11v1.13h-1.11v-1.13Z"></path><path d="M83.08,3.38h1.11v1.13h-1.11v-1.13ZM83.08,4.51h1.11v1.13h-1.11v-1.13ZM84.18,3.38h1.11v1.13h-1.11v-1.13ZM84.18,4.51h1.11v1.13h-1.11v-1.13ZM85.29,3.38h1.11v1.13h-1.11v-1.13ZM85.29,4.51h1.11v1.13h-1.11v-1.13ZM85.29,5.64h1.11v1.13h-1.11v-1.13ZM85.29,6.77h1.11v1.13h-1.11v-1.13ZM85.29,7.89h1.11v1.13h-1.11v-1.13ZM85.29,9.02h1.11v1.13h-1.11v-1.13ZM85.29,10.15h1.11v1.13h-1.11v-1.13ZM85.29,11.28h1.11v1.13h-1.11v-1.13ZM85.29,12.4h1.11v1.13h-1.11v-1.13ZM85.29,13.53h1.11v1.13h-1.11v-1.13ZM86.39,3.38h1.11v1.13h-1.11v-1.13ZM86.39,4.51h1.11v1.13h-1.11v-1.13ZM86.39,5.64h1.11v1.13h-1.11v-1.13ZM86.39,6.77h1.11v1.13h-1.11v-1.13ZM86.39,7.89h1.11v1.13h-1.11v-1.13ZM86.39,9.02h1.11v1.13h-1.11v-1.13ZM86.39,10.15h1.11v1.13h-1.11v-1.13ZM86.39,11.28h1.11v1.13h-1.11v-1.13ZM86.39,12.4h1.11v1.13h-1.11v-1.13ZM86.39,13.53h1.11v1.13h-1.11v-1.13ZM87.5,3.38h1.11v1.13h-1.11v-1.13ZM87.5,4.51h1.11v1.13h-1.11v-1.13ZM88.61,3.38h1.11v1.13h-1.11v-1.13ZM88.61,4.51h1.11v1.13h-1.11v-1.13Z"></path><path d="M90.82,6.77h1.11v1.13h-1.11v-1.13ZM90.82,7.89h1.11v1.13h-1.11v-1.13ZM90.82,9.02h1.11v1.13h-1.11v-1.13ZM90.82,10.15h1.11v1.13h-1.11v-1.13ZM90.82,11.28h1.11v1.13h-1.11v-1.13ZM90.82,12.4h1.11v1.13h-1.11v-1.13ZM90.82,13.53h1.11v1.13h-1.11v-1.13ZM91.92,5.64h1.11v1.13h-1.11v-1.13ZM91.92,6.77h1.11v1.13h-1.11v-1.13ZM91.92,7.89h1.11v1.13h-1.11v-1.13ZM91.92,9.02h1.11v1.13h-1.11v-1.13ZM91.92,10.15h1.11v1.13h-1.11v-1.13ZM91.92,11.28h1.11v1.13h-1.11v-1.13ZM91.92,12.4h1.11v1.13h-1.11v-1.13ZM91.92,13.53h1.11v1.13h-1.11v-1.13ZM93.03,4.51h1.11v1.13h-1.11v-1.13ZM93.03,5.64h1.11v1.13h-1.11v-1.13ZM93.03,6.77h1.11v1.13h-1.11v-1.13ZM93.03,10.15h1.11v1.13h-1.11v-1.13ZM93.03,11.28h1.11v1.13h-1.11v-1.13ZM94.14,3.38h1.11v1.13h-1.11v-1.13ZM94.14,4.51h1.11v1.13h-1.11v-1.13ZM94.14,5.64h1.11v1.13h-1.11v-1.13ZM94.14,10.15h1.11v1.13h-1.11v-1.13ZM94.14,11.28h1.11v1.13h-1.11v-1.13ZM95.24,4.51h1.11v1.13h-1.11v-1.13ZM95.24,5.64h1.11v1.13h-1.11v-1.13ZM95.24,6.77h1.11v1.13h-1.11v-1.13ZM95.24,10.15h1.11v1.13h-1.11v-1.13ZM95.24,11.28h1.11v1.13h-1.11v-1.13ZM96.35,5.64h1.11v1.13h-1.11v-1.13ZM96.35,6.77h1.11v1.13h-1.11v-1.13ZM96.35,7.89h1.11v1.13h-1.11v-1.13ZM96.35,9.02h1.11v1.13h-1.11v-1.13ZM96.35,10.15h1.11v1.13h-1.11v-1.13ZM96.35,11.28h1.11v1.13h-1.11v-1.13ZM96.35,12.4h1.11v1.13h-1.11v-1.13ZM96.35,13.53h1.11v1.13h-1.11v-1.13ZM97.45,6.77h1.11v1.13h-1.11v-1.13ZM97.45,7.89h1.11v1.13h-1.11v-1.13ZM97.45,9.02h1.11v1.13h-1.11v-1.13ZM97.45,10.15h1.11v1.13h-1.11v-1.13ZM97.45,11.28h1.11v1.13h-1.11v-1.13ZM97.45,12.4h1.11v1.13h-1.11v-1.13ZM97.45,13.53h1.11v1.13h-1.11v-1.13Z"></path><path d="M99.66,3.38h1.11v1.13h-1.11v-1.13ZM99.66,4.51h1.11v1.13h-1.11v-1.13ZM99.66,5.64h1.11v1.13h-1.11v-1.13ZM99.66,6.77h1.11v1.13h-1.11v-1.13ZM99.66,7.89h1.11v1.13h-1.11v-1.13ZM99.66,9.02h1.11v1.13h-1.11v-1.13ZM99.66,10.15h1.11v1.13h-1.11v-1.13ZM99.66,11.28h1.11v1.13h-1.11v-1.13ZM99.66,12.4h1.11v1.13h-1.11v-1.13ZM99.66,13.53h1.11v1.13h-1.11v-1.13ZM100.77,3.38h1.11v1.13h-1.11v-1.13ZM100.77,4.51h1.11v1.13h-1.11v-1.13ZM100.77,5.64h1.11v1.13h-1.11v-1.13ZM100.77,6.77h1.11v1.13h-1.11v-1.13ZM100.77,7.89h1.11v1.13h-1.11v-1.13ZM100.77,9.02h1.11v1.13h-1.11v-1.13ZM100.77,10.15h1.11v1.13h-1.11v-1.13ZM100.77,11.28h1.11v1.13h-1.11v-1.13ZM100.77,12.4h1.11v1.13h-1.11v-1.13ZM100.77,13.53h1.11v1.13h-1.11v-1.13ZM101.88,3.38h1.11v1.13h-1.11v-1.13ZM101.88,4.51h1.11v1.13h-1.11v-1.13ZM101.88,5.64h1.11v1.13h-1.11v-1.13ZM101.88,6.77h1.11v1.13h-1.11v-1.13ZM101.88,7.89h1.11v1.13h-1.11v-1.13ZM102.98,5.64h1.11v1.13h-1.11v-1.13ZM102.98,6.77h1.11v1.13h-1.11v-1.13ZM102.98,7.89h1.11v1.13h-1.11v-1.13ZM102.98,9.02h1.11v1.13h-1.11v-1.13ZM102.98,10.15h1.11v1.13h-1.11v-1.13ZM104.09,7.89h1.11v1.13h-1.11v-1.13ZM104.09,9.02h1.11v1.13h-1.11v-1.13ZM104.09,10.15h1.11v1.13h-1.11v-1.13ZM104.09,11.28h1.11v1.13h-1.11v-1.13ZM104.09,12.4h1.11v1.13h-1.11v-1.13ZM105.19,10.15h1.11v1.13h-1.11v-1.13ZM105.19,11.28h1.11v1.13h-1.11v-1.13ZM105.19,12.4h1.11v1.13h-1.11v-1.13ZM105.19,13.53h1.11v1.13h-1.11v-1.13ZM106.3,3.38h1.11v1.13h-1.11v-1.13ZM106.3,4.51h1.11v1.13h-1.11v-1.13ZM106.3,5.64h1.11v1.13h-1.11v-1.13ZM106.3,6.77h1.11v1.13h-1.11v-1.13ZM106.3,7.89h1.11v1.13h-1.11v-1.13ZM106.3,9.02h1.11v1.13h-1.11v-1.13ZM106.3,10.15h1.11v1.13h-1.11v-1.13ZM106.3,11.28h1.11v1.13h-1.11v-1.13ZM106.3,12.4h1.11v1.13h-1.11v-1.13ZM106.3,13.53h1.11v1.13h-1.11v-1.13ZM107.4,3.38h1.11v1.13h-1.11v-1.13ZM107.4,4.51h1.11v1.13h-1.11v-1.13ZM107.4,5.64h1.11v1.13h-1.11v-1.13ZM107.4,6.77h1.11v1.13h-1.11v-1.13ZM107.4,7.89h1.11v1.13h-1.11v-1.13ZM107.4,9.02h1.11v1.13h-1.11v-1.13ZM107.4,10.15h1.11v1.13h-1.11v-1.13ZM107.4,11.28h1.11v1.13h-1.11v-1.13ZM107.4,12.4h1.11v1.13h-1.11v-1.13ZM107.4,13.53h1.11v1.13h-1.11v-1.13Z"></path><path d="M109.62,3.38h1.11v1.13h-1.11v-1.13ZM109.62,4.51h1.11v1.13h-1.11v-1.13ZM109.62,5.64h1.11v1.13h-1.11v-1.13ZM109.62,6.77h1.11v1.13h-1.11v-1.13ZM109.62,7.89h1.11v1.13h-1.11v-1.13ZM109.62,9.02h1.11v1.13h-1.11v-1.13ZM109.62,10.15h1.11v1.13h-1.11v-1.13ZM109.62,11.28h1.11v1.13h-1.11v-1.13ZM109.62,12.4h1.11v1.13h-1.11v-1.13ZM109.62,13.53h1.11v1.13h-1.11v-1.13ZM110.72,3.38h1.11v1.13h-1.11v-1.13ZM110.72,4.51h1.11v1.13h-1.11v-1.13ZM110.72,5.64h1.11v1.13h-1.11v-1.13ZM110.72,6.77h1.11v1.13h-1.11v-1.13ZM110.72,7.89h1.11v1.13h-1.11v-1.13ZM110.72,9.02h1.11v1.13h-1.11v-1.13ZM110.72,10.15h1.11v1.13h-1.11v-1.13ZM110.72,11.28h1.11v1.13h-1.11v-1.13ZM110.72,12.4h1.11v1.13h-1.11v-1.13ZM110.72,13.53h1.11v1.13h-1.11v-1.13ZM111.83,3.38h1.11v1.13h-1.11v-1.13ZM111.83,4.51h1.11v1.13h-1.11v-1.13ZM111.83,7.89h1.11v1.13h-1.11v-1.13ZM111.83,9.02h1.11v1.13h-1.11v-1.13ZM111.83,12.4h1.11v1.13h-1.11v-1.13ZM111.83,13.53h1.11v1.13h-1.11v-1.13ZM112.93,3.38h1.11v1.13h-1.11v-1.13ZM112.93,4.51h1.11v1.13h-1.11v-1.13ZM112.93,7.89h1.11v1.13h-1.11v-1.13ZM112.93,9.02h1.11v1.13h-1.11v-1.13ZM112.93,12.4h1.11v1.13h-1.11v-1.13ZM112.93,13.53h1.11v1.13h-1.11v-1.13ZM114.04,3.38h1.11v1.13h-1.11v-1.13ZM114.04,4.51h1.11v1.13h-1.11v-1.13ZM114.04,7.89h1.11v1.13h-1.11v-1.13ZM114.04,9.02h1.11v1.13h-1.11v-1.13ZM114.04,12.4h1.11v1.13h-1.11v-1.13ZM114.04,13.53h1.11v1.13h-1.11v-1.13ZM115.15,3.38h1.11v1.13h-1.11v-1.13ZM115.15,4.51h1.11v1.13h-1.11v-1.13ZM115.15,5.64h1.11v1.13h-1.11v-1.13ZM115.15,6.77h1.11v1.13h-1.11v-1.13ZM115.15,7.89h1.11v1.13h-1.11v-1.13ZM115.15,9.02h1.11v1.13h-1.11v-1.13ZM115.15,10.15h1.11v1.13h-1.11v-1.13ZM115.15,11.28h1.11v1.13h-1.11v-1.13ZM115.15,12.4h1.11v1.13h-1.11v-1.13ZM115.15,13.53h1.11v1.13h-1.11v-1.13ZM116.25,4.51h1.11v1.13h-1.11v-1.13ZM116.25,5.64h1.11v1.13h-1.11v-1.13ZM116.25,6.77h1.11v1.13h-1.11v-1.13ZM116.25,9.02h1.11v1.13h-1.11v-1.13ZM116.25,10.15h1.11v1.13h-1.11v-1.13ZM116.25,11.28h1.11v1.13h-1.11v-1.13ZM116.25,12.4h1.11v1.13h-1.11v-1.13Z"></path><path d="M118.46,3.38h1.11v1.13h-1.11v-1.13ZM118.46,4.51h1.11v1.13h-1.11v-1.13ZM118.46,5.64h1.11v1.13h-1.11v-1.13ZM118.46,6.77h1.11v1.13h-1.11v-1.13ZM118.46,7.89h1.11v1.13h-1.11v-1.13ZM118.46,9.02h1.11v1.13h-1.11v-1.13ZM118.46,10.15h1.11v1.13h-1.11v-1.13ZM118.46,11.28h1.11v1.13h-1.11v-1.13ZM118.46,12.4h1.11v1.13h-1.11v-1.13ZM119.57,3.38h1.11v1.13h-1.11v-1.13ZM119.57,4.51h1.11v1.13h-1.11v-1.13ZM119.57,5.64h1.11v1.13h-1.11v-1.13ZM119.57,6.77h1.11v1.13h-1.11v-1.13ZM119.57,7.89h1.11v1.13h-1.11v-1.13ZM119.57,9.02h1.11v1.13h-1.11v-1.13ZM119.57,10.15h1.11v1.13h-1.11v-1.13ZM119.57,11.28h1.11v1.13h-1.11v-1.13ZM119.57,12.4h1.11v1.13h-1.11v-1.13ZM119.57,13.53h1.11v1.13h-1.11v-1.13ZM120.67,11.28h1.11v1.13h-1.11v-1.13ZM120.67,12.4h1.11v1.13h-1.11v-1.13ZM120.67,13.53h1.11v1.13h-1.11v-1.13ZM121.78,12.4h1.11v1.13h-1.11v-1.13ZM121.78,13.53h1.11v1.13h-1.11v-1.13ZM122.89,11.28h1.11v1.13h-1.11v-1.13ZM122.89,12.4h1.11v1.13h-1.11v-1.13ZM122.89,13.53h1.11v1.13h-1.11v-1.13ZM123.99,3.38h1.11v1.13h-1.11v-1.13ZM123.99,4.51h1.11v1.13h-1.11v-1.13ZM123.99,5.64h1.11v1.13h-1.11v-1.13ZM123.99,6.77h1.11v1.13h-1.11v-1.13ZM123.99,7.89h1.11v1.13h-1.11v-1.13ZM123.99,9.02h1.11v1.13h-1.11v-1.13ZM123.99,10.15h1.11v1.13h-1.11v-1.13ZM123.99,11.28h1.11v1.13h-1.11v-1.13ZM123.99,12.4h1.11v1.13h-1.11v-1.13ZM123.99,13.53h1.11v1.13h-1.11v-1.13ZM125.1,3.38h1.11v1.13h-1.11v-1.13ZM125.1,4.51h1.11v1.13h-1.11v-1.13ZM125.1,5.64h1.11v1.13h-1.11v-1.13ZM125.1,6.77h1.11v1.13h-1.11v-1.13ZM125.1,7.89h1.11v1.13h-1.11v-1.13ZM125.1,9.02h1.11v1.13h-1.11v-1.13ZM125.1,10.15h1.11v1.13h-1.11v-1.13ZM125.1,11.28h1.11v1.13h-1.11v-1.13ZM125.1,12.4h1.11v1.13h-1.11v-1.13Z"></path><path d="M127.31,3.38h1.11v1.13h-1.11v-1.13ZM127.31,4.51h1.11v1.13h-1.11v-1.13ZM127.31,5.64h1.11v1.13h-1.11v-1.13ZM127.31,6.77h1.11v1.13h-1.11v-1.13ZM127.31,7.89h1.11v1.13h-1.11v-1.13ZM127.31,9.02h1.11v1.13h-1.11v-1.13ZM127.31,10.15h1.11v1.13h-1.11v-1.13ZM127.31,11.28h1.11v1.13h-1.11v-1.13ZM127.31,12.4h1.11v1.13h-1.11v-1.13ZM127.31,13.53h1.11v1.13h-1.11v-1.13ZM128.42,3.38h1.11v1.13h-1.11v-1.13ZM128.42,4.51h1.11v1.13h-1.11v-1.13ZM128.42,5.64h1.11v1.13h-1.11v-1.13ZM128.42,6.77h1.11v1.13h-1.11v-1.13ZM128.42,7.89h1.11v1.13h-1.11v-1.13ZM128.42,9.02h1.11v1.13h-1.11v-1.13ZM128.42,10.15h1.11v1.13h-1.11v-1.13ZM128.42,11.28h1.11v1.13h-1.11v-1.13ZM128.42,12.4h1.11v1.13h-1.11v-1.13ZM128.42,13.53h1.11v1.13h-1.11v-1.13ZM129.52,12.4h1.11v1.13h-1.11v-1.13ZM129.52,13.53h1.11v1.13h-1.11v-1.13ZM130.63,12.4h1.11v1.13h-1.11v-1.13ZM130.63,13.53h1.11v1.13h-1.11v-1.13ZM131.73,12.4h1.11v1.13h-1.11v-1.13ZM131.73,13.53h1.11v1.13h-1.11v-1.13Z"></path><path d="M70.91,0h1.11v1.13h-1.11V0ZM70.91,1.13h1.11v1.13h-1.11v-1.13ZM70.91,3.38h1.11v1.13h-1.11v-1.13ZM70.91,4.51h1.11v1.13h-1.11v-1.13ZM70.91,5.64h1.11v1.13h-1.11v-1.13ZM70.91,6.77h1.11v1.13h-1.11v-1.13ZM70.91,7.89h1.11v1.13h-1.11v-1.13ZM70.91,9.02h1.11v1.13h-1.11v-1.13ZM70.91,10.15h1.11v1.13h-1.11v-1.13ZM70.91,11.28h1.11v1.13h-1.11v-1.13ZM70.91,12.4h1.11v1.13h-1.11v-1.13ZM70.91,13.53h1.11v1.13h-1.11v-1.13ZM72.02,0h1.11v1.13h-1.11V0ZM72.02,1.13h1.11v1.13h-1.11v-1.13ZM72.02,3.38h1.11v1.13h-1.11v-1.13ZM72.02,4.51h1.11v1.13h-1.11v-1.13ZM72.02,5.64h1.11v1.13h-1.11v-1.13ZM72.02,6.77h1.11v1.13h-1.11v-1.13ZM72.02,7.89h1.11v1.13h-1.11v-1.13ZM72.02,9.02h1.11v1.13h-1.11v-1.13ZM72.02,10.15h1.11v1.13h-1.11v-1.13ZM72.02,11.28h1.11v1.13h-1.11v-1.13ZM72.02,12.4h1.11v1.13h-1.11v-1.13ZM72.02,13.53h1.11v1.13h-1.11v-1.13Z"></path></g></g><path d="M14.51,7.11l-1.96-1.93v-2.86c0-.19-.15-.34-.34-.34h-2.77L7.55.13c-.13-.13-.35-.13-.48,0l-1.89,1.86h-2.77c-.19,0-.34.15-.34.34v2.86L.1,7.11C.04,7.17,0,7.26,0,7.35c0,.09.04.18.1.24l1.98,1.93v2.74c0,.19.15.34.34.34h2.73l1.91,1.93c.06.06.15.1.24.1s.18-.04.24-.1l1.91-1.93h2.73c.19,0,.34-.15.34-.34v-2.74l1.98-1.93c.07-.06.1-.15.1-.24,0-.09-.04-.18-.1-.24ZM11.87,4.98h-2.28v-2.32h2.28v2.32ZM8.84,7.83c-.07.06-.1.15-.1.24v.71h-.7c-.09,0-.18.04-.24.1l-.49.49-.49-.49c-.06-.06-.15-.1-.24-.1h-.7v-.71c0-.09-.04-.18-.1-.24l-.51-.49.5-.49c.07-.06.1-.15.1-.24v-.75h.72c.09,0,.18-.04.24-.1l.48-.48.48.48c.06.06.15.1.24.1h.72v.75c0,.09.04.18.1.24l.5.49-.51.49ZM7.31.85l1.6,1.57v2.75h-.73l-.62-.61c-.13-.13-.35-.13-.48,0l-.62.61h-.79v-2.7l1.65-1.62ZM4.97,2.67v2.32h-2.23v-2.32h2.23ZM2.55,5.66h2.64v.79l-.65.64c-.07.06-.1.15-.1.24,0,.09.04.18.1.24l.65.64v.7h-2.75l-1.62-1.57,1.72-1.68ZM2.77,9.6h2.25v2.32h-2.25v-2.32ZM7.31,13.81l-1.61-1.62s0-.01,0-.02v-2.7h.73l.63.64c.06.06.15.1.24.1s.18-.04.24-.1l.63-.64h.68v2.7s0,.05,0,.07l-1.56,1.57ZM9.54,11.92v-2.32h2.31v2.32h-2.31ZM12.17,8.92h-2.75v-.7l.65-.64c.07-.06.1-.15.1-.24,0-.09-.04-.18-.1-.24l-.65-.64v-.79h2.64l1.72,1.68-1.62,1.57Z"></path></g></svg> 